STARTFONT 2.3
FONT -FontForge-Butcherman-Book-R-Normal--10-100-72-72-P-54-ISO10646-1
SIZE 10 72 72  4
FONTBOUNDINGBOX 16 20 -1 -7
COMMENT "Generated by fontforge, http://fontforge.sourceforge.net"
COMMENT "Copyright (c) 2011, Typomondo, with Reserved Font Name  "Butcherman"."
STARTPROPERTIES 41
FOUNDRY "FontForge"
FAMILY_NAME "Butcherman"
WEIGHT_NAME "Book"
SLANT "R"
SETWIDTH_NAME "Normal"
ADD_STYLE_NAME ""
PIXEL_SIZE 10
POINT_SIZE 100
RESOLUTION_X 72
RESOLUTION_Y 72
SPACING "P"
AVERAGE_WIDTH 54
CHARSET_REGISTRY "ISO10646"
CHARSET_ENCODING "1"
FONTNAME_REGISTRY ""
CHARSET_COLLECTIONS "ISO8859-2 ISO8859-9 ISO8859-4 ISO10646-1"
BITS_PER_PIXEL 4
FONT_NAME "Butcherman-Regular"
FACE_NAME "Butcherman Regular"
COPYRIGHT "Copyright (c) 2011, Typomondo, with Reserved Font Name  "Butcherman"."
FONT_VERSION "001.004"
FONT_ASCENT 8
FONT_DESCENT 2
UNDERLINE_POSITION -1
UNDERLINE_THICKNESS 1
X_HEIGHT 7
CAP_HEIGHT 7
DEFAULT_CHAR 3
RAW_ASCENT 799
RAW_DESCENT 200
NORM_SPACE 2
RELATIVE_WEIGHT 40
RELATIVE_SETWIDTH 50
SUPERSCRIPT_X 0
SUPERSCRIPT_Y 3
SUPERSCRIPT_SIZE 5
SUBSCRIPT_X 0
SUBSCRIPT_Y 0
SUBSCRIPT_SIZE 5
AVG_LOWERCASE_WIDTH 57
AVG_UPPERCASE_WIDTH 55
ENDPROPERTIES
CHARS 331
STARTCHAR NULL.dup1
ENCODING 0
SWIDTH 161 0
DWIDTH 2 0
BBX 1 1 0 0
BITMAP
00
ENDCHAR
STARTCHAR CR
ENCODING 13
SWIDTH 161 0
DWIDTH 2 0
BBX 1 1 0 0
BITMAP
00
ENDCHAR
STARTCHAR space
ENCODING 32
SWIDTH 161 0
DWIDTH 2 0
BBX 1 1 0 0
BITMAP
00
ENDCHAR
STARTCHAR exclam
ENCODING 33
SWIDTH 350 0
DWIDTH 4 0
BBX 4 13 0 0
BITMAP
1420
AFF1
6FD0
7FB0
4F90
0F80
0E70
0E60
0420
4780
6FF0
4FF1
3760
ENDCHAR
STARTCHAR quotedbl
ENCODING 34
SWIDTH 541 0
DWIDTH 5 0
BBX 5 5 0 3
BITMAP
252540
6F6EC0
3F4AA0
1F2780
030210
ENDCHAR
STARTCHAR numbersign
ENCODING 35
SWIDTH 583 0
DWIDTH 6 0
BBX 6 9 0 -1
BITMAP
007154
00B0B2
1BEAE6
2FFFF5
0A2860
2C2B30
DFFF90
563810
715400
ENDCHAR
STARTCHAR dollar
ENCODING 36
SWIDTH 534 0
DWIDTH 5 0
BBX 5 13 0 -3
BITMAP
006000
00A000
00B400
1DFF90
7FFFE0
9FEFD0
8F9970
2BFF30
285F70
1EEF20
02A300
00A000
006000
ENDCHAR
STARTCHAR percent
ENCODING 37
SWIDTH 828 0
DWIDTH 8 0
BBX 8 9 0 -1
BITMAP
02003700
8FB08600
ADE0A300
97D0C1C7
5D7583FD
010B44DE
000B05CB
00280031
00350000
ENDCHAR
STARTCHAR ampersand
ENCODING 38
SWIDTH 522 0
DWIDTH 5 0
BBX 5 6 0 1
BITMAP
014100
03F600
6BFB80
9FFFB0
14F710
02A300
ENDCHAR
STARTCHAR quotesingle
ENCODING 39
SWIDTH 300 0
DWIDTH 3 0
BBX 3 5 0 3
BITMAP
3520
6F60
3F50
1F30
0300
ENDCHAR
STARTCHAR parenleft
ENCODING 40
SWIDTH 372 0
DWIDTH 4 0
BBX 4 11 0 -2
BITMAP
0024
05F7
1EF5
5FF3
8F50
9F20
9F20
6F50
1ED1
06F3
0010
ENDCHAR
STARTCHAR parenright
ENCODING 41
SWIDTH 338 0
DWIDTH 3 0
BBX 3 11 0 -2
BITMAP
3200
AF40
9FD0
8FD0
1BD0
08C0
08B0
0A90
1D50
BB00
3100
ENDCHAR
STARTCHAR asterisk
ENCODING 42
SWIDTH 513 0
DWIDTH 5 0
BBX 5 6 0 2
BITMAP
050900
0AAB00
6AFB60
6AFB60
06DB00
063700
ENDCHAR
STARTCHAR plus
ENCODING 43
SWIDTH 458 0
DWIDTH 5 0
BBX 5 5 0 1
BITMAP
04B000
4AE710
8FFE10
06E000
024000
ENDCHAR
STARTCHAR comma
ENCODING 44
SWIDTH 361 0
DWIDTH 4 0
BBX 4 6 0 -2
BITMAP
2650
7FF1
8FF1
48F1
01E0
0150
ENDCHAR
STARTCHAR hyphen
ENCODING 45
SWIDTH 478 0
DWIDTH 5 0
BBX 5 3 0 2
BITMAP
5CCB20
6FFF00
011100
ENDCHAR
STARTCHAR period
ENCODING 46
SWIDTH 374 0
DWIDTH 4 0
BBX 4 4 0 0
BITMAP
3671
5FF3
4FF3
2761
ENDCHAR
STARTCHAR slash
ENCODING 47
SWIDTH 291 0
DWIDTH 3 0
BBX 3 9 0 -1
BITMAP
0090
0490
0660
0C20
2C00
5800
7300
A000
8000
ENDCHAR
STARTCHAR zero
ENCODING 48
SWIDTH 528 0
DWIDTH 5 0
BBX 5 9 0 -1
BITMAP
025300
2EFF50
8FFFB0
7FEFC0
6F3FB0
6F1FA0
4F5F50
1DFE10
016300
ENDCHAR
STARTCHAR one
ENCODING 49
SWIDTH 366 0
DWIDTH 4 0
BBX 4 9 0 -1
BITMAP
0150
9EF1
4EF3
0DF1
0BE0
0AD0
09D0
06B0
0010
ENDCHAR
STARTCHAR two
ENCODING 50
SWIDTH 575 0
DWIDTH 6 0
BBX 6 9 0 -1
BITMAP
026400
3EFF60
7FFFD0
7FEFE0
5E5FB0
006F70
02DF53
5FFFF7
597282
ENDCHAR
STARTCHAR three
ENCODING 51
SWIDTH 517 0
DWIDTH 5 0
BBX 5 9 0 -1
BITMAP
035200
6FFE20
9FFF80
7FEFA0
596F80
00DF60
044C90
09EE40
017500
ENDCHAR
STARTCHAR four
ENCODING 52
SWIDTH 466 0
DWIDTH 5 0
BBX 5 11 0 -3
BITMAP
265610
1FF500
2FE000
4FA000
3F9300
5F9E00
7FBD20
9FFF50
115B20
002800
000100
ENDCHAR
STARTCHAR five
ENCODING 53
SWIDTH 583 0
DWIDTH 6 0
BBX 6 9 0 -1
BITMAP
367542
7FFFF7
7FFFF5
6FFFF3
7F4441
3EEF50
044C80
08EE40
017500
ENDCHAR
STARTCHAR six
ENCODING 54
SWIDTH 582 0
DWIDTH 6 0
BBX 6 9 0 -1
BITMAP
024300
5FFFB0
9FFFF6
8FEFF4
6F6CF1
2FB990
0E98F0
0BEDF0
039980
ENDCHAR
STARTCHAR seven
ENCODING 55
SWIDTH 624 0
DWIDTH 6 0
BBX 7 9 0 -1
BITMAP
24567610
BFFFFE00
9FFFFA00
6FFFF500
1327F100
000DA000
003F3000
008C0000
00C60000
ENDCHAR
STARTCHAR eight
ENCODING 56
SWIDTH 459 0
DWIDTH 5 0
BBX 5 9 0 -1
BITMAP
056300
8FFF20
8FFF20
6FDF00
4F7C00
0EF700
0E8900
0DD700
045100
ENDCHAR
STARTCHAR nine
ENCODING 57
SWIDTH 584 0
DWIDTH 6 0
BBX 6 10 0 -2
BITMAP
014510
1CFFC1
7FFFF4
9FEFF6
7FACF6
1BEEF2
285BC0
1EEF50
025400
001000
ENDCHAR
STARTCHAR colon
ENCODING 58
SWIDTH 386 0
DWIDTH 4 0
BBX 4 9 0 0
BITMAP
3671
4FF3
4FF4
2872
0000
3781
6FF3
4FF3
1861
ENDCHAR
STARTCHAR semicolon
ENCODING 59
SWIDTH 375 0
DWIDTH 4 0
BBX 4 11 0 -2
BITMAP
3671
6FF2
5FF2
3871
0000
2551
6FF2
6FF2
48F2
01F0
0170
ENDCHAR
STARTCHAR less
ENCODING 60
SWIDTH 459 0
DWIDTH 5 0
BBX 5 7 0 0
BITMAP
012100
08FD10
2EF300
9FA000
2EE100
04FC10
002410
ENDCHAR
STARTCHAR equal
ENCODING 61
SWIDTH 485 0
DWIDTH 5 0
BBX 5 5 0 2
BITMAP
010100
5FFF20
133300
5FFF20
011100
ENDCHAR
STARTCHAR greater
ENCODING 62
SWIDTH 432 0
DWIDTH 4 0
BBX 4 7 0 0
BITMAP
1220
5FD0
0AF7
02FE
08F7
7FB0
1210
ENDCHAR
STARTCHAR question
ENCODING 63
SWIDTH 577 0
DWIDTH 6 0
BBX 5 10 0 -2
BITMAP
08CA10
6FFFB0
7FFFF0
4C6FE0
004F80
008D10
004200
02D800
00F900
001000
ENDCHAR
STARTCHAR at
ENCODING 64
SWIDTH 930 0
DWIDTH 9 0
BBX 9 12 0 -3
BITMAP
0006860000
00BDABC100
0978A98C00
2B5FFF6D70
775FFF4AC0
963E4F28F0
861B9F26E0
7A2F6FA6A0
3E2CDAAC30
09A0000000
009EDE3000
0001310000
ENDCHAR
STARTCHAR A
ENCODING 65
SWIDTH 494 0
DWIDTH 5 0
BBX 5 10 0 -2
BITMAP
133200
3FFF40
0EFD00
0EFB00
0EDA00
0E9A00
0EEA00
0EC800
094600
011200
ENDCHAR
STARTCHAR B
ENCODING 66
SWIDTH 517 0
DWIDTH 5 0
BBX 5 9 0 -1
BITMAP
146510
6FFFB0
0FFFB0
0EDE90
0DAB70
0CFF20
0B9D30
09DE20
014400
ENDCHAR
STARTCHAR C
ENCODING 67
SWIDTH 504 0
DWIDTH 5 0
BBX 5 9 0 -1
BITMAP
026400
3EFF70
AFFFC0
AFEFB0
8F4D90
5F3000
3F5E40
0DFE20
027500
ENDCHAR
STARTCHAR D
ENCODING 68
SWIDTH 522 0
DWIDTH 5 0
BBX 5 10 0 -2
BITMAP
023400
8FFF90
3FFFF0
0FFEE0
0EA7C0
0D9690
0ABA70
09DF40
045500
001000
ENDCHAR
STARTCHAR E
ENCODING 69
SWIDTH 570 0
DWIDTH 6 0
BBX 6 9 0 -1
BITMAP
245530
6FFFF1
1FFFC0
0FEE80
0EB410
0CFD00
0BA400
08EE00
014200
ENDCHAR
STARTCHAR F
ENCODING 70
SWIDTH 559 0
DWIDTH 6 0
BBX 6 9 0 -1
BITMAP
244420
4FFFE1
0CFFA0
0BFF90
09E740
08FF40
07F010
09F000
025100
ENDCHAR
STARTCHAR G
ENCODING 71
SWIDTH 499 0
DWIDTH 5 0
BBX 5 9 0 -1
BITMAP
024100
5FFE40
9FFFB0
9FEFA0
7F3F90
4F4950
3F6E80
0DEF60
046700
ENDCHAR
STARTCHAR H
ENCODING 72
SWIDTH 726 0
DWIDTH 7 0
BBX 7 10 0 -2
BITMAP
01415420
6FF1CFA0
1FF0DF30
0DF0EF00
0BE5EB00
08FEF800
07F3F600
06F4F400
02217100
00020000
ENDCHAR
STARTCHAR I
ENCODING 73
SWIDTH 401 0
DWIDTH 4 0
BBX 4 9 0 -1
BITMAP
4664
5FF5
0DF3
0DF2
0DF0
0BE0
09D0
06C0
0130
ENDCHAR
STARTCHAR J
ENCODING 74
SWIDTH 455 0
DWIDTH 5 0
BBX 5 9 -1 -1
BITMAP
002430
003FE0
001FA0
002F70
002F50
163F30
2F7F10
0CEC00
003100
ENDCHAR
STARTCHAR K
ENCODING 75
SWIDTH 580 0
DWIDTH 6 0
BBX 6 9 0 -1
BITMAP
353331
5FBAD2
0DCD30
0AFF00
09FF10
06FF20
05DD40
03B970
002210
ENDCHAR
STARTCHAR L
ENCODING 76
SWIDTH 416 0
DWIDTH 4 0
BBX 5 9 0 -1
BITMAP
455200
6FD000
3FB000
2FA000
0FA000
0DA000
0CD520
09FF50
023610
ENDCHAR
STARTCHAR M
ENCODING 77
SWIDTH 740 0
DWIDTH 7 0
BBX 7 9 0 -1
BITMAP
25727620
5FF6FF90
1FFDFF50
0DFFFF30
0CFFFF30
09DECF20
07EC9F00
05B76B00
01100100
ENDCHAR
STARTCHAR N
ENCODING 78
SWIDTH 610 0
DWIDTH 6 0
BBX 6 10 0 -2
BITMAP
134341
6FD7F7
1FFAF1
0FFEF0
0DFFD0
0BEFB0
09AFA0
08AB90
056640
021100
ENDCHAR
STARTCHAR O
ENCODING 79
SWIDTH 504 0
DWIDTH 5 0
BBX 5 9 0 -1
BITMAP
025200
3EFF60
AFFFB0
9FEFB0
7F3FB0
5F1F90
2F6F50
1DFE10
015500
ENDCHAR
STARTCHAR P
ENCODING 80
SWIDTH 545 0
DWIDTH 5 0
BBX 6 9 0 -1
BITMAP
245520
4FFFE1
0DFFF2
0CFCF0
09F3E0
07FBB0
05F620
04F100
015100
ENDCHAR
STARTCHAR Q
ENCODING 81
SWIDTH 520 0
DWIDTH 5 0
BBX 5 10 0 -2
BITMAP
004300
3DFF60
9FFFD0
BFDEE0
8F7BD0
4F7AC0
1EBDA0
06FF90
0058B0
000010
ENDCHAR
STARTCHAR R
ENCODING 82
SWIDTH 599 0
DWIDTH 6 0
BBX 6 9 0 -1
BITMAP
136520
6FFFF6
0CFFFB
0AFBFB
09F2F9
05FFF4
03F9E1
02F6F1
004162
ENDCHAR
STARTCHAR S
ENCODING 83
SWIDTH 504 0
DWIDTH 5 0
BBX 5 9 0 -1
BITMAP
015300
2EFF80
9FFFC0
BFEFB0
9F8860
2CFE30
386F60
2FEF10
034300
ENDCHAR
STARTCHAR T
ENCODING 84
SWIDTH 622 0
DWIDTH 6 0
BBX 6 9 0 -1
BITMAP
135530
5FFFFA
1FFFF6
0EFFF5
039F21
008F10
008F00
006F00
006B00
ENDCHAR
STARTCHAR U
ENCODING 85
SWIDTH 637 0
DWIDTH 6 0
BBX 6 9 0 -1
BITMAP
355131
4FC5FB
1FC5F7
0ED6F4
0CB7F1
0CC8E0
0AEBC0
06DC70
002200
ENDCHAR
STARTCHAR V
ENCODING 86
SWIDTH 570 0
DWIDTH 6 0
BBX 6 9 0 -1
BITMAP
353353
4F6AF3
0F7DC0
0E9F80
0DBF40
0AEF10
08FD00
06F900
029400
ENDCHAR
STARTCHAR W
ENCODING 87
SWIDTH 777 0
DWIDTH 8 0
BBX 8 8 0 0
BITMAP
01343430
6FBA9CE4
0AEDDF70
06FFFF10
01EFFC00
00AEFA00
007BE600
0038C100
ENDCHAR
STARTCHAR X
ENCODING 88
SWIDTH 587 0
DWIDTH 6 0
BBX 6 9 0 -1
BITMAP
143320
4EDAE6
06FF60
00FF20
00ED00
00CC00
00ED00
02CD30
033320
ENDCHAR
STARTCHAR Y
ENCODING 89
SWIDTH 688 0
DWIDTH 7 0
BBX 7 9 0 -1
BITMAP
24504100
2BF4DF70
01CEF800
006FF100
001EE000
000AD000
0008C000
0007B000
00022000
ENDCHAR
STARTCHAR Z
ENCODING 90
SWIDTH 695 0
DWIDTH 7 0
BBX 7 9 0 -1
BITMAP
14665200
7FFFFF80
1EFFFF10
0BEFF900
043FA000
008D1000
00DA3000
04EF9000
00121000
ENDCHAR
STARTCHAR bracketleft
ENCODING 91
SWIDTH 410 0
DWIDTH 4 0
BBX 4 10 0 -1
BITMAP
3985
4FFB
4F85
5F20
6F20
6F30
6F30
4F41
2FEB
0220
ENDCHAR
STARTCHAR backslash
ENCODING 92
SWIDTH 292 0
DWIDTH 3 0
BBX 3 9 0 -1
BITMAP
9000
A300
7600
3B00
0D10
0840
0460
00A0
0080
ENDCHAR
STARTCHAR bracketright
ENCODING 93
SWIDTH 407 0
DWIDTH 4 0
BBX 4 10 0 -1
BITMAP
5993
BFF5
48F5
01F6
00F6
00F7
00F7
12F6
CFF6
0212
ENDCHAR
STARTCHAR asciicircum
ENCODING 94
SWIDTH 523 0
DWIDTH 5 0
BBX 5 4 0 7
BITMAP
049600
0CFE10
4F5E80
580580
ENDCHAR
STARTCHAR underscore
ENCODING 95
SWIDTH 452 0
DWIDTH 5 0
BBX 4 3 0 -1
BITMAP
2434
8FFF
2333
ENDCHAR
STARTCHAR grave
ENCODING 96
SWIDTH 444 0
DWIDTH 4 0
BBX 4 3 0 7
BITMAP
0B50
3BF7
0013
ENDCHAR
STARTCHAR a
ENCODING 97
SWIDTH 479 0
DWIDTH 5 0
BBX 5 9 0 -1
BITMAP
367650
4FFF30
0EFF10
0EFF00
0DEE00
0F9F10
0FBF00
0FBE00
0C2800
ENDCHAR
STARTCHAR b
ENCODING 98
SWIDTH 610 0
DWIDTH 6 0
BBX 6 9 0 -1
BITMAP
024541
6FFFF9
0CFFFC
0AFEFC
08F3F7
07FFE1
05F7F2
02F9F1
016780
ENDCHAR
STARTCHAR c
ENCODING 99
SWIDTH 534 0
DWIDTH 5 0
BBX 6 9 0 -1
BITMAP
026500
4EFFB0
AFFFF1
AFFFF1
6F7BE0
4F7010
1F8B50
0BEF40
015500
ENDCHAR
STARTCHAR d
ENCODING 100
SWIDTH 573 0
DWIDTH 6 0
BBX 6 9 0 -1
BITMAP
135410
7FFFD2
2FFFF8
0DFFF8
0AF5F6
07F1F2
05F3D0
04FCA0
037C40
ENDCHAR
STARTCHAR e
ENCODING 101
SWIDTH 632 0
DWIDTH 6 0
BBX 6 9 0 -1
BITMAP
035542
7FFFFB
1FFFF4
0DFFF2
0BF230
08FF80
06F530
04FE90
012430
ENDCHAR
STARTCHAR f
ENCODING 102
SWIDTH 559 0
DWIDTH 6 0
BBX 5 9 0 -1
BITMAP
244420
4FFFE0
0CFFA0
0BFF80
09E730
09FF20
07E000
09F000
026000
ENDCHAR
STARTCHAR g
ENCODING 103
SWIDTH 546 0
DWIDTH 5 0
BBX 6 9 0 -1
BITMAP
024300
5FFFA0
AFFFF3
9FEFF3
6F5CF0
3F5870
0F8DD0
0CDDC0
039950
ENDCHAR
STARTCHAR h
ENCODING 104
SWIDTH 730 0
DWIDTH 7 0
BBX 7 9 0 -1
BITMAP
12625640
4FF1AFA0
0FF1CF40
0DF0CF10
0AF7EC00
08FCF900
07F3F700
05F4F500
02105200
ENDCHAR
STARTCHAR i
ENCODING 105
SWIDTH 412 0
DWIDTH 4 0
BBX 4 9 0 -1
BITMAP
3653
4FF7
0CF4
0CF1
0CE0
09E0
07C0
06B0
0020
ENDCHAR
STARTCHAR j
ENCODING 106
SWIDTH 458 0
DWIDTH 5 0
BBX 6 9 -1 -1
BITMAP
004520
007FF1
003FC0
002FA0
002FA0
153F80
1F7F60
0AFF30
001300
ENDCHAR
STARTCHAR k
ENCODING 107
SWIDTH 636 0
DWIDTH 6 0
BBX 6 9 0 -1
BITMAP
134254
6FF6F6
0DF990
08FC60
07FE10
04FF20
02FB70
01F4D0
002130
ENDCHAR
STARTCHAR l
ENCODING 108
SWIDTH 438 0
DWIDTH 4 0
BBX 5 9 0 -1
BITMAP
255600
4FF300
1FF100
0EF000
0AE000
09E000
07F630
05FE60
031520
ENDCHAR
STARTCHAR m
ENCODING 109
SWIDTH 770 0
DWIDTH 8 0
BBX 8 9 0 -1
BITMAP
01435641
6FF7DFC1
1FFCFF60
1EFFFF30
0DFFFF10
0BDFDD00
09CDB900
07A7B600
03001100
ENDCHAR
STARTCHAR n
ENCODING 110
SWIDTH 664 0
DWIDTH 7 0
BBX 7 9 0 -1
BITMAP
35614420
6FF4FF20
2FF9FA00
1FFEF800
0FFFF600
0CEFF300
0BAEF100
099CC000
04366000
ENDCHAR
STARTCHAR o
ENCODING 111
SWIDTH 545 0
DWIDTH 5 0
BBX 6 9 0 -1
BITMAP
025400
3EFFB0
AFFFF3
9FEFF3
7F4EF2
5F3CE0
1F6FA0
0BFF50
002700
ENDCHAR
STARTCHAR p
ENCODING 112
SWIDTH 557 0
DWIDTH 6 0
BBX 6 9 0 -1
BITMAP
245420
4FFFE2
0EFFF4
0DFDF2
0BE4F0
09FCC0
07F740
06F000
025000
ENDCHAR
STARTCHAR q
ENCODING 113
SWIDTH 562 0
DWIDTH 6 0
BBX 6 10 0 -2
BITMAP
015510
4EFFC1
9FFFF4
BFDCF5
7F96F4
4F84F3
1EDCF1
05FFE2
0034C2
000010
ENDCHAR
STARTCHAR r
ENCODING 114
SWIDTH 616 0
DWIDTH 6 0
BBX 6 9 0 -1
BITMAP
135520
6FFFFA
0CFFFE
0AFCFB
08F3F9
07FFF5
06FBD0
05F7D0
024280
ENDCHAR
STARTCHAR s
ENCODING 115
SWIDTH 481 0
DWIDTH 5 0
BBX 5 9 0 -1
BITMAP
025200
2EFF50
9FFF80
BFEF70
9F7950
3EFA00
168F00
2FDB00
056300
ENDCHAR
STARTCHAR t
ENCODING 116
SWIDTH 683 0
DWIDTH 7 0
BBX 7 10 0 -2
BITMAP
13666410
8FFFFF30
1FFFFD00
0DFFFC00
045F7200
003F8000
001F7000
000E7000
000D6000
00001000
ENDCHAR
STARTCHAR u
ENCODING 117
SWIDTH 708 0
DWIDTH 7 0
BBX 7 8 0 0
BITMAP
14513100
4FF2CFB0
0EF3CF50
0CF4CE10
09F3DD00
08F4EB00
04F9F800
01CBD400
ENDCHAR
STARTCHAR v
ENCODING 118
SWIDTH 644 0
DWIDTH 6 0
BBX 7 9 0 -1
BITMAP
14405410
2FC4FB00
0BF5F500
08F7F100
05FAD000
01FDA000
00BF7000
006F4000
00270000
ENDCHAR
STARTCHAR w
ENCODING 119
SWIDTH 704 0
DWIDTH 7 0
BBX 7 8 0 0
BITMAP
02141200
6F8E5F90
0BBFCF20
07FFFB00
01FFF800
00DEF600
009BF500
0047D200
ENDCHAR
STARTCHAR x
ENCODING 120
SWIDTH 599 0
DWIDTH 6 0
BBX 6 9 0 -1
BITMAP
244330
3DDAE6
05FF60
00EF20
00DE00
00BC00
00DE00
02DC30
023220
ENDCHAR
STARTCHAR y
ENCODING 121
SWIDTH 604 0
DWIDTH 6 0
BBX 6 9 0 -1
BITMAP
252220
2CC8F6
03FE90
00DF30
009F20
006F00
005F00
006D00
003400
ENDCHAR
STARTCHAR z
ENCODING 122
SWIDTH 622 0
DWIDTH 6 0
BBX 6 9 0 -1
BITMAP
156651
7FFFFA
1EFFF4
0BFFE1
044F50
008B00
00C820
02FF80
002330
ENDCHAR
STARTCHAR braceleft
ENCODING 123
SWIDTH 372 0
DWIDTH 4 0
BBX 4 11 0 -2
BITMAP
0024
05F7
1EF5
5FF3
8F50
9F20
9F20
6F50
1ED1
06F3
0010
ENDCHAR
STARTCHAR bar
ENCODING 124
SWIDTH 208 0
DWIDTH 2 0
BBX 2 9 0 -1
BITMAP
56
67
56
55
56
66
55
55
55
ENDCHAR
STARTCHAR braceright
ENCODING 125
SWIDTH 338 0
DWIDTH 3 0
BBX 3 11 0 -2
BITMAP
3200
AF40
9FD0
8FD0
1BD0
08C0
08B0
0A90
1D50
BB00
3100
ENDCHAR
STARTCHAR asciitilde
ENCODING 126
SWIDTH 535 0
DWIDTH 5 0
BBX 5 3 0 5
BITMAP
272A40
5FFEC0
043110
ENDCHAR
STARTCHAR exclamdown
ENCODING 161
SWIDTH 347 0
DWIDTH 3 0
BBX 4 13 0 0
BITMAP
1420
4FF1
5FF1
5AB1
0110
0D60
0E70
0F90
2F90
6FB0
5FD0
9FF1
3760
ENDCHAR
STARTCHAR cent
ENCODING 162
SWIDTH 552 0
DWIDTH 6 0
BBX 6 15 0 -4
BITMAP
002000
007000
007000
01A610
3EFFB0
AFFFF1
9FFFF1
6F8AF0
4F7010
1F9A60
0BEF40
018500
006000
006000
004000
ENDCHAR
STARTCHAR sterling
ENCODING 163
SWIDTH 589 0
DWIDTH 6 0
BBX 6 9 0 -1
BITMAP
024300
4EFFC1
8FFFF6
7FEFF7
5F6BF3
7FC231
0DC650
0FEF90
025620
ENDCHAR
STARTCHAR yen
ENCODING 165
SWIDTH 692 0
DWIDTH 7 0
BBX 7 9 0 0
BITMAP
68607540
1CF4FE30
01EEF400
24BFF730
267FD410
3BBFEB60
000EA000
000CA000
00021000
ENDCHAR
STARTCHAR brokenbar
ENCODING 166
SWIDTH 201 0
DWIDTH 2 0
BBX 2 9 0 -1
BITMAP
65
66
65
12
00
33
55
55
45
ENDCHAR
STARTCHAR section
ENCODING 167
SWIDTH 477 0
DWIDTH 5 0
BBX 5 10 0 -2
BITMAP
016400
1DFF60
3FFF50
2FAE10
1FE800
AE6F00
AF8B00
3CF700
4BB700
1BB100
ENDCHAR
STARTCHAR dieresis
ENCODING 168
SWIDTH 633 0
DWIDTH 6 0
BBX 6 3 0 8
BITMAP
142263
5FA8F8
4E97D7
ENDCHAR
STARTCHAR copyright
ENCODING 169
SWIDTH 783 0
DWIDTH 8 0
BBX 8 9 0 -1
BITMAP
005A9300
09689640
498FF861
92BFF935
91ABA716
838A2034
475DD391
09578860
007AA500
ENDCHAR
STARTCHAR guillemotleft
ENCODING 171
SWIDTH 759 0
DWIDTH 8 0
BBX 8 7 0 0
BITMAP
00110110
05F95FC1
2EE2EF30
9F65FA00
3EA1DE00
05F73EA0
00340241
ENDCHAR
STARTCHAR uni00AD
ENCODING 173
SWIDTH 446 0
DWIDTH 4 0
BBX 4 3 0 2
BITMAP
1211
6FFD
0111
ENDCHAR
STARTCHAR registered
ENCODING 174
SWIDTH 780 0
DWIDTH 8 0
BBX 8 9 0 -1
BITMAP
00586200
09C86540
49CFF771
938EE845
806DB647
623FD224
2A0E8851
06A54960
00399400
ENDCHAR
STARTCHAR macron
ENCODING 175
SWIDTH 446 0
DWIDTH 4 0
BBX 4 3 0 2
BITMAP
1211
6FFD
0111
ENDCHAR
STARTCHAR acute
ENCODING 180
SWIDTH 439 0
DWIDTH 4 0
BBX 4 3 0 7
BITMAP
01C2
3DD6
2200
ENDCHAR
STARTCHAR mu
ENCODING 181
SWIDTH 679 0
DWIDTH 7 0
BBX 7 9 0 -1
BITMAP
24503100
7FE0FF80
3FF1EF20
0FF2FC00
0CF1FA00
0BF3F800
07F9F500
03DBD100
00001000
ENDCHAR
STARTCHAR paragraph
ENCODING 182
SWIDTH 591 0
DWIDTH 6 0
BBX 6 9 0 -1
BITMAP
035542
8FFFF7
AFF9C1
7FF8D0
3FF7C0
035790
002770
002670
001230
ENDCHAR
STARTCHAR periodcentered
ENCODING 183
SWIDTH 388 0
DWIDTH 4 0
BBX 4 4 0 2
BITMAP
1451
5FF3
3FF4
2A82
ENDCHAR
STARTCHAR cedilla
ENCODING 184
SWIDTH 270 0
DWIDTH 3 0
BBX 3 4 0 -4
BITMAP
4800
6B30
2B40
2410
ENDCHAR
STARTCHAR guillemotright
ENCODING 187
SWIDTH 767 0
DWIDTH 8 0
BBX 8 7 0 0
BITMAP
12100000
5FC1DC10
0AF53F90
02FC0BF4
09F62FE2
7FB0BF50
12115500
ENDCHAR
STARTCHAR Agrave
ENCODING 192
SWIDTH 494 0
DWIDTH 5 0
BBX 6 12 -1 -2
BITMAP
0A5000
2BF700
014620
03FFF4
00EFD0
00EFB0
00EDA0
00E9A0
00EEA0
00EC80
009460
001120
ENDCHAR
STARTCHAR Aacute
ENCODING 193
SWIDTH 494 0
DWIDTH 5 0
BBX 6 12 0 -2
BITMAP
0001C2
003DD7
135400
3FFF40
0EFD00
0EFB00
0EDA00
0E9A00
0EEA00
0EC800
094600
011200
ENDCHAR
STARTCHAR Acircumflex
ENCODING 194
SWIDTH 494 0
DWIDTH 5 0
BBX 5 14 0 -2
BITMAP
046200
0EFB00
5D6F40
930660
133200
3FFF40
0EFD00
0EFB00
0EDA00
0E9A00
0EEA00
0EC800
094600
011200
ENDCHAR
STARTCHAR Atilde
ENCODING 195
SWIDTH 494 0
DWIDTH 5 0
BBX 5 13 0 -2
BITMAP
120500
ADDF80
2A7730
133200
3FFF40
0EFD00
0EFB00
0EDA00
0E9A00
0EEA00
0EC800
094600
011200
ENDCHAR
STARTCHAR Adieresis
ENCODING 196
SWIDTH 494 0
DWIDTH 5 0
BBX 5 13 0 -2
BITMAP
441560
EF2FE0
DF2EC0
133200
3FFF40
0EFD00
0EFB00
0EDA00
0E9A00
0EEA00
0EC800
094600
011200
ENDCHAR
STARTCHAR Aring
ENCODING 197
SWIDTH 494 0
DWIDTH 5 0
BBX 5 13 0 -2
BITMAP
05A500
0B3B00
07C600
134200
3FFF40
0EFD00
0EFB00
0EDA00
0E9A00
0EEA00
0EC800
094600
011200
ENDCHAR
STARTCHAR AE
ENCODING 198
SWIDTH 733 0
DWIDTH 7 0
BBX 7 10 0 -2
BITMAP
13455420
3FFFFFB0
0EFFFF50
0EFFDF20
0EDF8300
0E9FF800
0EEF7300
0ECCF900
09456300
01121100
ENDCHAR
STARTCHAR Ccedilla
ENCODING 199
SWIDTH 504 0
DWIDTH 5 0
BBX 5 13 0 -5
BITMAP
026400
3EFF70
AFFFC0
AFEFB0
8F4D90
5F3000
3F5E40
0DFE20
027500
000C00
002C60
001790
001430
ENDCHAR
STARTCHAR Egrave
ENCODING 200
SWIDTH 570 0
DWIDTH 6 0
BBX 6 11 0 -1
BITMAP
5A1000
8EC100
248530
6FFFF1
1FFFC0
0FEE80
0EB410
0CFD00
0BA400
08EE00
014200
ENDCHAR
STARTCHAR Eacute
ENCODING 201
SWIDTH 570 0
DWIDTH 6 0
BBX 7 11 0 -1
BITMAP
00007800
000AEA10
24583000
6FFFF100
1FFFC000
0FEE8000
0EB41000
0CFD0000
0BA40000
08EE0000
01420000
ENDCHAR
STARTCHAR Ecircumflex
ENCODING 202
SWIDTH 570 0
DWIDTH 6 0
BBX 6 13 0 -1
BITMAP
016500
08FF20
1E7CA0
4802B0
245530
6FFFF1
1FFFC0
0FEE80
0EB410
0CFD00
0BA400
08EE00
014200
ENDCHAR
STARTCHAR Edieresis
ENCODING 203
SWIDTH 570 0
DWIDTH 6 0
BBX 6 12 0 -1
BITMAP
242362
8F6BF5
7F6AD4
245530
6FFFF1
1FFFC0
0FEE80
0EB410
0CFD00
0BA400
08EE00
014200
ENDCHAR
STARTCHAR Igrave
ENCODING 204
SWIDTH 401 0
DWIDTH 4 0
BBX 5 11 -1 -1
BITMAP
3B1000
7DD200
048740
05FF50
00DF30
00DF20
00DF00
00BE00
009D00
006C00
001300
ENDCHAR
STARTCHAR Iacute
ENCODING 205
SWIDTH 401 0
DWIDTH 4 0
BBX 6 11 0 -1
BITMAP
0006A0
008FB2
469400
5FF500
0DF300
0DF200
0DF000
0BE000
09D000
06C000
013000
ENDCHAR
STARTCHAR Icircumflex
ENCODING 206
SWIDTH 401 0
DWIDTH 4 0
BBX 6 13 -1 -1
BITMAP
016500
06FF30
0D8BB0
2901B1
046640
05FF50
00DF30
00DF20
00DF00
00BE00
009D00
006C00
001300
ENDCHAR
STARTCHAR Idieresis
ENCODING 207
SWIDTH 401 0
DWIDTH 4 0
BBX 6 12 -1 -1
BITMAP
242362
7F89F6
6E79D6
046640
05FF50
00DF30
00DF20
00DF00
00BE00
009D00
006C00
001300
ENDCHAR
STARTCHAR Eth
ENCODING 208
SWIDTH 530 0
DWIDTH 5 0
BBX 6 10 0 -2
BITMAP
013520
2FFFD2
0CFFF6
09FEF6
19F4F4
4AF5F0
04F6C0
03DF90
022810
000100
ENDCHAR
STARTCHAR Ntilde
ENCODING 209
SWIDTH 610 0
DWIDTH 6 0
BBX 6 13 0 -2
BITMAP
020320
3FBFE1
07A570
134341
6FD7F7
1FFAF1
0FFEF0
0DFFD0
0BEFB0
09AFA0
08AB90
056640
021100
ENDCHAR
STARTCHAR Ograve
ENCODING 210
SWIDTH 504 0
DWIDTH 5 0
BBX 6 11 -1 -1
BITMAP
0B5000
3BF700
003820
03EFF6
0AFFFB
09FEFB
07F3FB
05F1F9
02F6F5
01DFE1
001550
ENDCHAR
STARTCHAR Oacute
ENCODING 211
SWIDTH 504 0
DWIDTH 5 0
BBX 6 11 0 -1
BITMAP
0001C2
003DD6
026400
3EFF60
AFFFB0
9FEFB0
7F3FB0
5F1F90
2F6F50
1DFE10
015500
ENDCHAR
STARTCHAR Ocircumflex
ENCODING 212
SWIDTH 504 0
DWIDTH 5 0
BBX 5 13 0 -1
BITMAP
046200
0EFB00
6D6F30
930760
025200
3EFF60
AFFFB0
9FEFB0
7F3FB0
5F1F90
2F6F50
1DFE10
015500
ENDCHAR
STARTCHAR Otilde
ENCODING 213
SWIDTH 504 0
DWIDTH 5 0
BBX 5 12 0 -1
BITMAP
211400
DCEF50
3B6810
025200
3EFF60
AFFFB0
9FEFB0
7F3FB0
5F1F90
2F6F50
1DFE10
015500
ENDCHAR
STARTCHAR Odieresis
ENCODING 214
SWIDTH 504 0
DWIDTH 5 0
BBX 5 12 0 -1
BITMAP
441550
EF2FD0
DE2EC0
025200
3EFF60
AFFFB0
9FEFB0
7F3FB0
5F1F90
2F6F50
1DFE10
015500
ENDCHAR
STARTCHAR multiply
ENCODING 215
SWIDTH 359 0
DWIDTH 4 0
BBX 4 4 0 2
BITMAP
2460
9EF4
5FE2
7BD4
ENDCHAR
STARTCHAR Oslash
ENCODING 216
SWIDTH 658 0
DWIDTH 7 0
BBX 8 9 -1 -1
BITMAP
00154000
01CFFC23
06FFFF80
05FEFF30
02F6DF30
01FAAF10
00D8CD00
05AFF800
11057200
ENDCHAR
STARTCHAR Ugrave
ENCODING 217
SWIDTH 637 0
DWIDTH 6 0
BBX 6 11 0 -1
BITMAP
0C3000
4CE500
356431
4FC5FB
1FC5F7
0ED6F4
0CB7F1
0CC8E0
0AEBC0
06DC70
002200
ENDCHAR
STARTCHAR Uacute
ENCODING 218
SWIDTH 637 0
DWIDTH 6 0
BBX 7 11 0 -1
BITMAP
00003C00
0005EC40
35545100
4FC5FB00
1FC5F700
0ED6F400
0CB7F100
0CC8E000
0AEBC000
06DC7000
00220000
ENDCHAR
STARTCHAR Ucircumflex
ENCODING 219
SWIDTH 637 0
DWIDTH 6 0
BBX 6 13 0 -1
BITMAP
005610
02FF70
09B8E1
0A1093
355131
4FC5FB
1FC5F7
0ED6F4
0CB7F1
0CC8E0
0AEBC0
06DC70
002200
ENDCHAR
STARTCHAR Udieresis
ENCODING 220
SWIDTH 637 0
DWIDTH 6 0
BBX 6 12 0 -1
BITMAP
153264
3FC5FA
2EB5E9
355131
4FC5FB
1FC5F7
0ED6F4
0CB7F1
0CC8E0
0AEBC0
06DC70
002200
ENDCHAR
STARTCHAR Yacute
ENCODING 221
SWIDTH 688 0
DWIDTH 7 0
BBX 7 12 0 -1
BITMAP
00001B30
0002DD80
00013000
24504100
2BF4DF70
01CEF800
006FF100
001EE000
000AD000
0008C000
0007B000
00022000
ENDCHAR
STARTCHAR Thorn
ENCODING 222
SWIDTH 521 0
DWIDTH 5 0
BBX 5 12 0 -2
BITMAP
011000
CFC000
AFB510
8FFFB0
7FFFD0
5FDDC0
3FA7B0
0FDC70
0DC610
0CB000
066000
011000
ENDCHAR
STARTCHAR germandbls
ENCODING 223
SWIDTH 546 0
DWIDTH 5 0
BBX 6 9 0 -1
BITMAP
024410
5FFFE0
9FFFF2
9FEFF1
7F6CA0
5F9F40
3F6E70
1F7E50
065A10
ENDCHAR
STARTCHAR agrave
ENCODING 224
SWIDTH 479 0
DWIDTH 5 0
BBX 6 11 -1 -1
BITMAP
096000
1BF900
036A65
04FFF3
00EFF1
00EFF0
00DEE0
00F9F1
00FBF0
00FBE0
00C280
ENDCHAR
STARTCHAR aacute
ENCODING 225
SWIDTH 479 0
DWIDTH 5 0
BBX 6 12 0 -1
BITMAP
0001B4
002CE8
001300
367650
4FFF30
0EFF10
0EFF00
0DEE00
0F9F10
0FBF00
0FBE00
0C2800
ENDCHAR
STARTCHAR acircumflex
ENCODING 226
SWIDTH 479 0
DWIDTH 5 0
BBX 5 13 0 -1
BITMAP
036300
0CFC00
4E6F50
740580
367650
4FFF30
0EFF10
0EFF00
0DEE00
0F9F10
0FBF00
0FBE00
0C2800
ENDCHAR
STARTCHAR atilde
ENCODING 227
SWIDTH 479 0
DWIDTH 5 0
BBX 5 12 0 -1
BITMAP
111400
BDDF70
2A6720
367650
4FFF30
0EFF10
0EFF00
0DEE00
0F9F10
0FBF00
0FBE00
0C2800
ENDCHAR
STARTCHAR adieresis
ENCODING 228
SWIDTH 479 0
DWIDTH 5 0
BBX 5 12 0 -1
BITMAP
441560
CF2FF0
CF2ED0
367650
4FFF30
0EFF10
0EFF00
0DEE00
0F9F10
0FBF00
0FBE00
0C2800
ENDCHAR
STARTCHAR aring
ENCODING 229
SWIDTH 479 0
DWIDTH 5 0
BBX 5 12 0 -1
BITMAP
04A500
0A3C00
06C700
367650
4FFF30
0EFF10
0EFF00
0DEE00
0F9F10
0FBF00
0FBE00
0C2800
ENDCHAR
STARTCHAR ae
ENCODING 230
SWIDTH 755 0
DWIDTH 8 0
BBX 8 9 0 -1
BITMAP
36767520
4FFFFFD1
0DFFFF80
0DFFFF60
0DEF7210
0E9FFB00
0EBF9300
0EBFFC00
0C274400
ENDCHAR
STARTCHAR ccedilla
ENCODING 231
SWIDTH 534 0
DWIDTH 5 0
BBX 6 13 0 -5
BITMAP
026500
4EFFB0
AFFFF1
AFFFF1
6F7BE0
4F7010
1F8B50
0BEF40
015500
003900
005B40
002A50
002410
ENDCHAR
STARTCHAR egrave
ENCODING 232
SWIDTH 632 0
DWIDTH 6 0
BBX 6 11 0 -1
BITMAP
1C2000
6DE300
037742
7FFFFB
1FFFF4
0DFFF2
0BF230
08FF80
06F530
04FE90
012430
ENDCHAR
STARTCHAR eacute
ENCODING 233
SWIDTH 632 0
DWIDTH 6 0
BBX 7 11 0 -1
BITMAP
00004B00
0006FC30
03585200
7FFFFB00
1FFFF400
0DFFF200
0BF23000
08FF8000
06F53000
04FE9000
01243000
ENDCHAR
STARTCHAR ecircumflex
ENCODING 234
SWIDTH 632 0
DWIDTH 6 0
BBX 6 13 0 -1
BITMAP
006600
04FF60
0BA9D0
1A00A2
035542
7FFFFB
1FFFF4
0DFFF2
0BF230
08FF80
06F530
04FE90
012430
ENDCHAR
STARTCHAR edieresis
ENCODING 235
SWIDTH 632 0
DWIDTH 6 0
BBX 6 12 0 -1
BITMAP
143263
4FA7F8
4E96D8
035542
7FFFFB
1FFFF4
0DFFF2
0BF230
08FF80
06F530
04FE90
012430
ENDCHAR
STARTCHAR igrave
ENCODING 236
SWIDTH 411 0
DWIDTH 4 0
BBX 5 11 -1 -1
BITMAP
2C1000
7DD300
038730
04FF80
00CF40
00CF10
00CE00
009E00
007C00
006B00
000200
ENDCHAR
STARTCHAR iacute
ENCODING 237
SWIDTH 411 0
DWIDTH 4 0
BBX 6 11 0 -1
BITMAP
0005A0
007FB2
369400
4FF800
0CF400
0CF100
0CE000
09E000
07C000
06B000
002000
ENDCHAR
STARTCHAR icircumflex
ENCODING 238
SWIDTH 411 0
DWIDTH 4 0
BBX 5 13 0 -1
BITMAP
056100
2FF800
8C7E10
A10940
365300
4FF800
0CF400
0CF100
0CE000
09E000
07C000
06B000
002000
ENDCHAR
STARTCHAR idieresis
ENCODING 239
SWIDTH 411 0
DWIDTH 4 0
BBX 6 12 -1 -1
BITMAP
142363
6F98F7
5E88D6
036530
04FF80
00CF40
00CF10
00CE00
009E00
007C00
006B00
000200
ENDCHAR
STARTCHAR eth
ENCODING 240
SWIDTH 530 0
DWIDTH 5 0
BBX 6 10 0 -2
BITMAP
013520
2FFFD2
0CFFF6
09FEF6
19F4F4
4AF5F0
04F6C0
03DF90
022810
000100
ENDCHAR
STARTCHAR ntilde
ENCODING 241
SWIDTH 664 0
DWIDTH 7 0
BBX 7 12 0 -1
BITMAP
02014000
0DCEF400
04B58100
35614420
6FF4FF20
2FF9FA00
1FFEF800
0FFFF600
0CEFF300
0BAEF100
099CC000
04366000
ENDCHAR
STARTCHAR ograve
ENCODING 242
SWIDTH 545 0
DWIDTH 5 0
BBX 7 11 -1 -1
BITMAP
08800000
1AEA0000
00294000
03EFFB00
0AFFFF30
09FEFF30
07F4EF20
05F3CE00
01F6FA00
00BFF500
00027000
ENDCHAR
STARTCHAR oacute
ENCODING 243
SWIDTH 545 0
DWIDTH 5 0
BBX 6 11 0 -1
BITMAP
0000A5
001CE9
026800
3EFFB0
AFFFF3
9FEFF3
7F4EF2
5F3CE0
1F6FA0
0BFF50
002700
ENDCHAR
STARTCHAR ocircumflex
ENCODING 244
SWIDTH 545 0
DWIDTH 5 0
BBX 6 13 0 -1
BITMAP
026400
0BFD00
2F6E70
650490
025400
3EFFB0
AFFFF3
9FEFF3
7F4EF2
5F3CE0
1F6FA0
0BFF50
002700
ENDCHAR
STARTCHAR otilde
ENCODING 245
SWIDTH 545 0
DWIDTH 5 0
BBX 6 12 0 -1
BITMAP
120500
9DCF80
2A7730
025400
3EFFB0
AFFFF3
9FEFF3
7F4EF2
5F3CE0
1F6FA0
0BFF50
002700
ENDCHAR
STARTCHAR odieresis
ENCODING 246
SWIDTH 545 0
DWIDTH 5 0
BBX 6 12 0 -1
BITMAP
341461
BF3EF2
AF3DD2
025400
3EFFB0
AFFFF3
9FEFF3
7F4EF2
5F3CE0
1F6FA0
0BFF50
002700
ENDCHAR
STARTCHAR oslash
ENCODING 248
SWIDTH 676 0
DWIDTH 7 0
BBX 7 9 0 -1
BITMAP
01540000
2EFFB420
8FFFF400
7FEFF200
5F7EF100
2F7CD000
1F6EA000
59FF5000
00270000
ENDCHAR
STARTCHAR ugrave
ENCODING 249
SWIDTH 708 0
DWIDTH 7 0
BBX 7 10 0 0
BITMAP
09600000
1BF90000
14643100
4FF2CFB0
0EF3CF50
0CF4CE10
09F3DD00
08F4EB00
04F9F800
01CBD400
ENDCHAR
STARTCHAR uacute
ENCODING 250
SWIDTH 708 0
DWIDTH 7 0
BBX 7 10 0 0
BITMAP
00001A40
0002CE80
14526100
4FF2CFB0
0EF3CF50
0CF4CE10
09F3DD00
08F4EB00
04F9F800
01CBD400
ENDCHAR
STARTCHAR ucircumflex
ENCODING 251
SWIDTH 708 0
DWIDTH 7 0
BBX 7 12 0 0
BITMAP
00363000
00CFD000
04E6E600
07405800
14513100
4FF2CFB0
0EF3CF50
0CF4CE10
09F3DD00
08F4EB00
04F9F800
01CBD400
ENDCHAR
STARTCHAR udieresis
ENCODING 252
SWIDTH 708 0
DWIDTH 7 0
BBX 7 11 0 0
BITMAP
04415600
0CF2FF00
0BF2ED10
14513100
4FF2CFB0
0EF3CF50
0CF4CE10
09F3DD00
08F4EB00
04F9F800
01CBD400
ENDCHAR
STARTCHAR yacute
ENCODING 253
SWIDTH 604 0
DWIDTH 6 0
BBX 7 11 0 -1
BITMAP
00005A00
0007FB20
25253000
2CC8F600
03FE9000
00DF3000
009F2000
006F0000
005F0000
006D0000
00340000
ENDCHAR
STARTCHAR thorn
ENCODING 254
SWIDTH 498 0
DWIDTH 5 0
BBX 5 12 0 -2
BITMAP
011000
CFA000
AFA500
8FFF80
7FFFA0
5FDE90
3F8A80
0FDD50
0DC600
0CA000
066000
011000
ENDCHAR
STARTCHAR ydieresis
ENCODING 255
SWIDTH 604 0
DWIDTH 6 0
BBX 6 12 0 -1
BITMAP
053155
1FD4FC
1ED3EB
252220
2CC8F6
03FE90
00DF30
009F20
006F00
005F00
006D00
003400
ENDCHAR
STARTCHAR Amacron
ENCODING 256
SWIDTH 494 0
DWIDTH 5 0
BBX 5 12 0 -2
BITMAP
021100
4FFF10
144300
3FFF40
0EFD00
0EFB00
0EDA00
0E9A00
0EEA00
0EC800
094600
011200
ENDCHAR
STARTCHAR amacron
ENCODING 257
SWIDTH 479 0
DWIDTH 5 0
BBX 5 11 0 -1
BITMAP
021100
2FFF30
368750
4FFF30
0EFF10
0EFF00
0DEE00
0F9F10
0FBF00
0FBE00
0C2800
ENDCHAR
STARTCHAR Abreve
ENCODING 258
SWIDTH 494 0
DWIDTH 5 0
BBX 5 14 0 -2
BITMAP
010000
0D57A0
08FF70
002610
133200
3FFF40
0EFD00
0EFB00
0EDA00
0E9A00
0EEA00
0EC800
094600
011200
ENDCHAR
STARTCHAR abreve
ENCODING 259
SWIDTH 479 0
DWIDTH 5 0
BBX 5 13 0 -1
BITMAP
010000
0D57A0
08FF70
002610
367650
4FFF30
0EFF10
0EFF00
0DEE00
0F9F10
0FBF00
0FBE00
0C2800
ENDCHAR
STARTCHAR Aogonek
ENCODING 260
SWIDTH 494 0
DWIDTH 5 0
BBX 5 13 0 -5
BITMAP
133200
3FFF40
0EFD00
0EFB00
0EDA00
0E9A00
0EEA00
0EC800
098600
01C400
00D710
008FB0
000220
ENDCHAR
STARTCHAR aogonek
ENCODING 261
SWIDTH 479 0
DWIDTH 5 0
BBX 6 12 0 -4
BITMAP
367650
4FFF30
0EFF10
0EFF00
0DEE00
0F9F10
0FBF00
0FBE00
0C3C00
004B00
003FB2
000581
ENDCHAR
STARTCHAR Cacute
ENCODING 262
SWIDTH 504 0
DWIDTH 5 0
BBX 6 11 0 -1
BITMAP
0005A0
007FB2
029500
3EFF70
AFFFC0
AFEFB0
8F4D90
5F3000
3F5E40
0DFE20
027500
ENDCHAR
STARTCHAR cacute
ENCODING 263
SWIDTH 534 0
DWIDTH 5 0
BBX 6 11 0 -1
BITMAP
0003C0
005EC4
029700
4EFFB0
AFFFF1
AFFFF1
6F7BE0
4F7010
1F8B50
0BEF40
015500
ENDCHAR
STARTCHAR Ccircumflex
ENCODING 264
SWIDTH 504 0
DWIDTH 5 0
BBX 5 13 0 -1
BITMAP
026400
0AFE10
2F6D80
5603A0
026400
3EFF70
AFFFC0
AFEFB0
8F4D90
5F3000
3F5E40
0DFE20
027500
ENDCHAR
STARTCHAR ccircumflex
ENCODING 265
SWIDTH 534 0
DWIDTH 5 0
BBX 6 13 0 -1
BITMAP
006600
05FF50
0C9AC0
1A01B2
026500
4EFFB0
AFFFF1
AFFFF1
6F7BE0
4F7010
1F8B50
0BEF40
015500
ENDCHAR
STARTCHAR Cdotaccent
ENCODING 266
SWIDTH 504 0
DWIDTH 5 0
BBX 5 13 0 -1
BITMAP
024400
09FE00
08FF00
059800
026400
3EFF70
AFFFC0
AFEFB0
8F4D90
5F3000
3F5E40
0DFE20
027500
ENDCHAR
STARTCHAR cdotaccent
ENCODING 267
SWIDTH 534 0
DWIDTH 5 0
BBX 6 13 0 -1
BITMAP
024510
06FF20
05FF30
03A810
026500
4EFFB0
AFFFF1
AFFFF1
6F7BE0
4F7010
1F8B50
0BEF40
015500
ENDCHAR
STARTCHAR Ccaron
ENCODING 268
SWIDTH 504 0
DWIDTH 5 0
BBX 5 13 0 -1
BITMAP
340340
6E2DA0
1EDF20
07D900
026400
3EFF70
AFFFC0
AFEFB0
8F4D90
5F3000
3F5E40
0DFE20
027500
ENDCHAR
STARTCHAR ccaron
ENCODING 269
SWIDTH 534 0
DWIDTH 5 0
BBX 6 13 0 -1
BITMAP
170060
1F68E1
09EF70
03DD10
026500
4EFFB0
AFFFF1
AFFFF1
6F7BE0
4F7010
1F8B50
0BEF40
015500
ENDCHAR
STARTCHAR Dcaron
ENCODING 270
SWIDTH 522 0
DWIDTH 5 0
BBX 6 14 0 -2
BITMAP
070060
1E76F2
08EE90
01DD20
023400
8FFF90
3FFFF0
0FFEE0
0EA7C0
0D9690
0ABA70
09DF40
045500
001000
ENDCHAR
STARTCHAR dcaron
ENCODING 271
SWIDTH 522 0
DWIDTH 5 0
BBX 6 14 0 -2
BITMAP
070060
1E76F2
08EE90
01DD20
023400
8FFF90
3FFFF0
0FFEE0
0EA7C0
0D9690
0ABA70
09DF40
045500
001000
ENDCHAR
STARTCHAR Eth.dup2
ENCODING 272
SWIDTH 530 0
DWIDTH 5 0
BBX 6 10 0 -2
BITMAP
013520
2FFFD2
0CFFF6
09FEF6
19F4F4
4AF5F0
04F6C0
03DF90
022810
000100
ENDCHAR
STARTCHAR Emacron
ENCODING 274
SWIDTH 570 0
DWIDTH 6 0
BBX 6 11 0 -1
BITMAP
021110
0CFF70
246540
6FFFF1
1FFFC0
0FEE80
0EB410
0CFD00
0BA400
08EE00
014200
ENDCHAR
STARTCHAR emacron
ENCODING 275
SWIDTH 632 0
DWIDTH 6 0
BBX 6 11 0 -1
BITMAP
011110
09FFB0
036652
7FFFFB
1FFFF4
0DFFF2
0BF230
08FF80
06F530
04FE90
012430
ENDCHAR
STARTCHAR Ebreve
ENCODING 276
SWIDTH 570 0
DWIDTH 6 0
BBX 6 13 0 -1
BITMAP
011000
08B2D2
03EFC0
002440
245530
6FFFF1
1FFFC0
0FEE80
0EB410
0CFD00
0BA400
08EE00
014200
ENDCHAR
STARTCHAR ebreve
ENCODING 277
SWIDTH 632 0
DWIDTH 6 0
BBX 6 13 0 -1
BITMAP
001000
01F388
00AFF5
000270
035542
7FFFFB
1FFFF4
0DFFF2
0BF230
08FF80
06F530
04FE90
012430
ENDCHAR
STARTCHAR Edotaccent
ENCODING 278
SWIDTH 570 0
DWIDTH 6 0
BBX 6 13 0 -1
BITMAP
024500
07FF10
06FF20
04A910
245530
6FFFF1
1FFFC0
0FEE80
0EB410
0CFD00
0BA400
08EE00
014200
ENDCHAR
STARTCHAR edotaccent
ENCODING 279
SWIDTH 632 0
DWIDTH 6 0
BBX 6 13 0 -1
BITMAP
014510
03FF50
02FF60
01A830
035542
7FFFFB
1FFFF4
0DFFF2
0BF230
08FF80
06F530
04FE90
012430
ENDCHAR
STARTCHAR Eogonek
ENCODING 280
SWIDTH 513 0
DWIDTH 5 0
BBX 6 12 0 -4
BITMAP
245530
6FFFF1
1FFFC0
0FEE80
0EB410
0CFD00
0BA400
09EF00
026A00
007A00
003EF1
000130
ENDCHAR
STARTCHAR eogonek
ENCODING 281
SWIDTH 632 0
DWIDTH 6 0
BBX 6 12 0 -4
BITMAP
035542
7FFFFB
1FFFF4
0DFFF2
0BF230
08FF80
06F530
04FE80
012E20
000E30
0009F9
000032
ENDCHAR
STARTCHAR Ecaron
ENCODING 282
SWIDTH 570 0
DWIDTH 6 0
BBX 6 13 0 -1
BITMAP
070060
1E76F2
08EE90
01DD20
245530
6FFFF1
1FFFC0
0FEE80
0EB410
0CFD00
0BA400
08EE00
014200
ENDCHAR
STARTCHAR ecaron
ENCODING 283
SWIDTH 632 0
DWIDTH 6 0
BBX 6 13 0 -1
BITMAP
044033
07E2D9
01EDF2
008D80
035542
7FFFFB
1FFFF4
0DFFF2
0BF230
08FF80
06F530
04FE90
012430
ENDCHAR
STARTCHAR Gcircumflex
ENCODING 284
SWIDTH 499 0
DWIDTH 5 0
BBX 5 13 0 -1
BITMAP
046300
0DFB00
5E6F40
830670
024100
5FFE40
9FFFB0
9FEFA0
7F3F90
4F4950
3F6E80
0DEF60
046700
ENDCHAR
STARTCHAR gcircumflex
ENCODING 285
SWIDTH 546 0
DWIDTH 5 0
BBX 6 13 0 -1
BITMAP
026400
0BFE10
2F6E70
650490
024300
5FFFA0
AFFFF3
9FEFF3
6F5CF0
3F5870
0F8DD0
0CDDC0
039950
ENDCHAR
STARTCHAR Gbreve
ENCODING 286
SWIDTH 499 0
DWIDTH 5 0
BBX 5 13 0 -1
BITMAP
010000
2F1A60
0CFF30
003600
024100
5FFE40
9FFFB0
9FEFA0
7F3F90
4F4950
3F6E80
0DEF60
046700
ENDCHAR
STARTCHAR gbreve
ENCODING 287
SWIDTH 546 0
DWIDTH 5 0
BBX 6 13 0 -1
BITMAP
010000
0E5790
08FF60
002710
024300
5FFFA0
AFFFF3
9FEFF3
6F5CF0
3F5870
0F8DD0
0CDDC0
039950
ENDCHAR
STARTCHAR Gdotaccent
ENCODING 288
SWIDTH 499 0
DWIDTH 5 0
BBX 5 13 0 -1
BITMAP
035300
0DFB00
0BFB00
079600
024100
5FFE40
9FFFB0
9FEFA0
7F3F90
4F4950
3F6E80
0DEF60
046700
ENDCHAR
STARTCHAR gdotaccent
ENCODING 289
SWIDTH 546 0
DWIDTH 5 0
BBX 6 13 0 -1
BITMAP
024400
0AFE00
08FE00
059800
024300
5FFFA0
AFFFF3
9FEFF3
6F5CF0
3F5870
0F8DD0
0CDDC0
039950
ENDCHAR
STARTCHAR Gcommaaccent
ENCODING 290
SWIDTH 499 0
DWIDTH 5 0
BBX 5 14 0 -6
BITMAP
024100
5FFE40
9FFFB0
9FEFA0
7F3F90
4F4950
3F6E80
0DEF60
046700
026500
05FF00
06FF00
001E00
003B00
ENDCHAR
STARTCHAR Hcircumflex
ENCODING 292
SWIDTH 726 0
DWIDTH 7 0
BBX 7 14 0 -2
BITMAP
00363000
00CFC000
04E6F500
08405800
01415420
6FF1CFA0
1FF0DF30
0DF0EF00
0BE5EB00
08FEF800
07F3F600
06F4F400
02217100
00020000
ENDCHAR
STARTCHAR hcircumflex
ENCODING 293
SWIDTH 730 0
DWIDTH 7 0
BBX 7 13 0 -1
BITMAP
00363000
00CFD000
03E6E600
07405800
12625640
4FF1AFA0
0FF1CF40
0DF0CF10
0AF7EC00
08FCF900
07F3F700
05F4F500
02105200
ENDCHAR
STARTCHAR hbar
ENCODING 295
SWIDTH 704 0
DWIDTH 7 0
BBX 7 9 0 -1
BITMAP
13626530
4FF1FF60
0FFFFE10
0DFBFC00
0AE7F800
08FCF600
07F3F700
05F4F500
02105200
ENDCHAR
STARTCHAR Itilde
ENCODING 296
SWIDTH 401 0
DWIDTH 4 0
BBX 5 12 -1 -1
BITMAP
020410
5FBFD0
089560
046640
05FF50
00DF30
00DF20
00DF00
00BE00
009D00
006C00
001300
ENDCHAR
STARTCHAR itilde
ENCODING 297
SWIDTH 411 0
DWIDTH 4 0
BBX 6 12 -1 -1
BITMAP
020420
4FBFD1
089560
036530
04FF80
00CF40
00CF10
00CE00
009E00
007C00
006B00
000200
ENDCHAR
STARTCHAR Imacron
ENCODING 298
SWIDTH 401 0
DWIDTH 4 0
BBX 4 11 0 -1
BITMAP
1111
BFF9
4764
5FF5
0DF3
0DF2
0DF0
0BE0
09D0
06C0
0130
ENDCHAR
STARTCHAR imacron
ENCODING 299
SWIDTH 411 0
DWIDTH 4 0
BBX 4 11 0 -1
BITMAP
1111
AFFA
3764
4FF8
0CF4
0CF1
0CE0
09E0
07C0
06B0
0020
ENDCHAR
STARTCHAR Ibreve
ENCODING 300
SWIDTH 401 0
DWIDTH 4 0
BBX 5 13 0 -1
BITMAP
110000
993D10
5EFB00
025300
466400
5FF500
0DF300
0DF200
0DF000
0BE000
09D000
06C000
013000
ENDCHAR
STARTCHAR ibreve
ENCODING 301
SWIDTH 411 0
DWIDTH 4 0
BBX 5 13 0 -1
BITMAP
110000
993D10
5EFB00
025300
365300
4FF800
0CF400
0CF100
0CE000
09E000
07C000
06B000
002000
ENDCHAR
STARTCHAR Iogonek
ENCODING 302
SWIDTH 401 0
DWIDTH 4 0
BBX 4 12 0 -4
BITMAP
4664
5FF5
0DF3
0DF2
0DF0
0BE0
09D0
07D0
0970
0C30
0CA4
05C9
ENDCHAR
STARTCHAR iogonek
ENCODING 303
SWIDTH 412 0
DWIDTH 4 0
BBX 4 12 0 -4
BITMAP
3653
4FF7
0CF4
0CF1
0CE0
09E0
07C0
07B0
0970
0C40
0AC6
0297
ENDCHAR
STARTCHAR Idotaccent
ENCODING 304
SWIDTH 401 0
DWIDTH 4 0
BBX 4 13 0 -1
BITMAP
2451
6FF3
4FF3
3A82
4664
5FF5
0DF3
0DF2
0DF0
0BE0
09D0
06C0
0130
ENDCHAR
STARTCHAR dotlessi
ENCODING 305
SWIDTH 411 0
DWIDTH 4 0
BBX 4 9 0 -1
BITMAP
3653
4FF8
0CF4
0CF1
0CE0
09E0
07C0
06B0
0020
ENDCHAR
STARTCHAR IJ
ENCODING 306
SWIDTH 908 0
DWIDTH 9 0
BBX 9 9 0 -1
BITMAP
4665004420
5FF800BF70
0DF6008F20
0DF400AF00
0DF200AD00
0BF134AB00
09F19BB900
06E05EE500
0130012000
ENDCHAR
STARTCHAR ij
ENCODING 307
SWIDTH 901 0
DWIDTH 9 0
BBX 9 9 0 -1
BITMAP
3653026410
4FF901FF70
0CF600CF20
0CF300BF10
0CF200BF10
09F234AE00
07F08CAC00
06D04EF900
0020003100
ENDCHAR
STARTCHAR Jcircumflex
ENCODING 308
SWIDTH 455 0
DWIDTH 5 0
BBX 6 13 -1 -1
BITMAP
001650
008FF2
01E6D9
04702B
002430
003FE0
001FA0
002F70
002F50
163F30
2F7F10
0CEC00
003100
ENDCHAR
STARTCHAR jcircumflex
ENCODING 309
SWIDTH 458 0
DWIDTH 5 0
BBX 6 13 -1 -1
BITMAP
001650
008FF2
01E7DA
04802B
004520
007FF1
003FB0
002FA0
002FA0
153F80
1F7F60
0AFF30
001300
ENDCHAR
STARTCHAR Kcommaaccent
ENCODING 310
SWIDTH 580 0
DWIDTH 6 0
BBX 6 14 0 -6
BITMAP
353331
5FBAD2
0DCD30
0AFF00
09FF10
06FF20
05DD40
03B970
002210
005520
00EF60
00FF60
000B50
000B20
ENDCHAR
STARTCHAR kcommaaccent
ENCODING 311
SWIDTH 636 0
DWIDTH 6 0
BBX 6 14 0 -6
BITMAP
134254
6FF6F6
0DF990
08FC60
07FE10
04FF20
02FB70
01F4D0
002130
004530
00AFB0
00AFB0
000690
000760
ENDCHAR
STARTCHAR kgreenlandic
ENCODING 312
SWIDTH 636 0
DWIDTH 6 0
BBX 6 9 0 -1
BITMAP
134254
6FF6F6
0DF990
08FC60
07FE10
04FF20
02FB70
01F4D0
002130
ENDCHAR
STARTCHAR Lacute
ENCODING 313
SWIDTH 416 0
DWIDTH 4 0
BBX 6 11 0 -1
BITMAP
0005A0
007FB2
458300
6FD000
3FB000
2FA000
0FA000
0DA000
0CD520
09FF50
023610
ENDCHAR
STARTCHAR lacute
ENCODING 314
SWIDTH 438 0
DWIDTH 4 0
BBX 6 11 0 -1
BITMAP
0003C0
005EC4
258700
4FF300
1FF100
0EF000
0AE000
09E000
07F630
05FE60
031520
ENDCHAR
STARTCHAR Lcommaaccent
ENCODING 315
SWIDTH 416 0
DWIDTH 4 0
BBX 5 14 0 -6
BITMAP
455200
6FD000
3FB000
2FA000
0FA000
0DA000
0CD520
09FF50
023610
055200
0CF800
0DF800
009700
009400
ENDCHAR
STARTCHAR lcommaaccent
ENCODING 316
SWIDTH 438 0
DWIDTH 4 0
BBX 5 14 0 -6
BITMAP
255600
4FF300
1FF100
0EF000
0AE000
09E000
07F630
05FE60
031520
045300
0AFA00
0BFA00
006900
007600
ENDCHAR
STARTCHAR Lcaron
ENCODING 317
SWIDTH 714 0
DWIDTH 7 0
BBX 7 9 0 -1
BITMAP
45525540
6FD0CFB0
3FB0DFB0
2FA07AB0
0FA00690
0DA00330
0CD52000
09FF5000
02361000
ENDCHAR
STARTCHAR lcaron
ENCODING 318
SWIDTH 782 0
DWIDTH 8 0
BBX 8 9 0 -1
BITMAP
25561652
4FF32FF7
1FF12FF7
0EF018D6
0AE000B4
09E00051
07F63000
05FE6000
03152000
ENDCHAR
STARTCHAR Ldotaccent
ENCODING 319
SWIDTH 567 0
DWIDTH 6 0
BBX 7 9 0 -1
BITMAP
45520000
6FD00000
3FB6DD10
2FA6FF20
0FA5FF10
0DA11000
0CD52000
09FF5000
02361000
ENDCHAR
STARTCHAR ldot
ENCODING 320
SWIDTH 660 0
DWIDTH 7 0
BBX 7 9 0 -1
BITMAP
25560000
4FF30000
1FF13540
0EF0BFD0
0AE09FD0
09E06970
07F63000
05FE6000
03152000
ENDCHAR
STARTCHAR Lslash
ENCODING 321
SWIDTH 428 0
DWIDTH 4 0
BBX 5 9 0 -1
BITMAP
355200
3FD000
1FB320
1FFF60
BFFC50
5DB000
0AD520
07FF50
013610
ENDCHAR
STARTCHAR lslash
ENCODING 322
SWIDTH 457 0
DWIDTH 5 0
BBX 5 9 0 -1
BITMAP
145610
3FF400
0EF560
0DFFD0
9FFC50
5DF000
06F640
04FE70
022430
ENDCHAR
STARTCHAR Nacute
ENCODING 323
SWIDTH 610 0
DWIDTH 6 0
BBX 7 12 0 -2
BITMAP
00004B00
0006FB30
13465100
6FD7F700
1FFAF100
0FFEF000
0DFFD000
0BEFB000
09AFA000
08AB9000
05664000
02110000
ENDCHAR
STARTCHAR nacute
ENCODING 324
SWIDTH 664 0
DWIDTH 7 0
BBX 7 11 0 -1
BITMAP
00002C20
0003ED60
35636420
6FF4FF20
2FF9FA00
1FFEF800
0FFFF600
0CEFF300
0BAEF100
099CC000
04366000
ENDCHAR
STARTCHAR Ncommaaccent
ENCODING 325
SWIDTH 610 0
DWIDTH 6 0
BBX 6 15 0 -7
BITMAP
134341
6FD7F7
1FFAF1
0FFEF0
0DFFD0
0BEFB0
09AFA0
08AB90
056640
021100
004530
00AFA0
00BFA0
000690
000760
ENDCHAR
STARTCHAR ncommaaccent
ENCODING 326
SWIDTH 664 0
DWIDTH 7 0
BBX 7 14 0 -6
BITMAP
35614420
6FF4FF20
2FF9FA00
1FFEF800
0FFFF600
0CEFF300
0BAEF100
099CC000
04366000
00264000
006FE000
007FE000
0003D000
0004A000
ENDCHAR
STARTCHAR Ncaron
ENCODING 327
SWIDTH 610 0
DWIDTH 6 0
BBX 6 14 0 -2
BITMAP
061061
0C94F3
06FEB0
00CD30
134341
6FD7F7
1FFAF1
0FFEF0
0DFFD0
0BEFB0
09AFA0
08AB90
056640
021100
ENDCHAR
STARTCHAR ncaron
ENCODING 328
SWIDTH 664 0
DWIDTH 7 0
BBX 7 13 0 -1
BITMAP
03403400
06E2DA00
01EDF200
007D9000
35614420
6FF4FF20
2FF9FA00
1FFEF800
0FFFF600
0CEFF300
0BAEF100
099CC000
04366000
ENDCHAR
STARTCHAR Omacron
ENCODING 332
SWIDTH 504 0
DWIDTH 5 0
BBX 5 11 0 -1
BITMAP
021100
4FFF10
036300
3EFF60
AFFFB0
9FEFB0
7F3FB0
5F1F90
2F6F50
1DFE10
015500
ENDCHAR
STARTCHAR omacron
ENCODING 333
SWIDTH 545 0
DWIDTH 5 0
BBX 6 11 0 -1
BITMAP
021110
1FFF40
026510
3EFFB0
AFFFF3
9FEFF3
7F4EF2
5F3CE0
1F6FA0
0BFF50
002700
ENDCHAR
STARTCHAR Obreve
ENCODING 334
SWIDTH 504 0
DWIDTH 5 0
BBX 5 13 0 -1
BITMAP
010000
1F2970
0AFF40
002700
025200
3EFF60
AFFFB0
9FEFB0
7F3FB0
5F1F90
2F6F50
1DFE10
015500
ENDCHAR
STARTCHAR obreve
ENCODING 335
SWIDTH 545 0
DWIDTH 5 0
BBX 6 13 0 -1
BITMAP
010000
0E4890
09FF60
002710
025400
3EFFB0
AFFFF3
9FEFF3
7F4EF2
5F3CE0
1F6FA0
0BFF50
002700
ENDCHAR
STARTCHAR Ohungarumlaut
ENCODING 336
SWIDTH 504 0
DWIDTH 5 0
BBX 6 13 0 -1
BITMAP
020200
0D7AC1
5D2E40
824500
025200
3EFF60
AFFFB0
9FEFB0
7F3FB0
5F1F90
2F6F50
1DFE10
015500
ENDCHAR
STARTCHAR ohungarumlaut
ENCODING 337
SWIDTH 545 0
DWIDTH 5 0
BBX 6 13 0 -1
BITMAP
020110
0AB7E3
2E3C70
641800
025400
3EFFB0
AFFFF3
9FEFF3
7F4EF2
5F3CE0
1F6FA0
0BFF50
002700
ENDCHAR
STARTCHAR OE
ENCODING 338
SWIDTH 789 0
DWIDTH 8 0
BBX 8 10 0 -2
BITMAP
02545531
4EFFFFF5
AFFFFFD0
9FEFEDA0
7F3FD410
5F1FFF10
3F5FC510
1DFFDE30
02775310
00112100
ENDCHAR
STARTCHAR oe
ENCODING 339
SWIDTH 778 0
DWIDTH 8 0
BBX 8 9 0 -1
BITMAP
02544420
4FFFFFF3
AFFFFFB0
9FEFFF80
6F3FD220
3F2EFE00
1F6FB500
0BFFEE10
00363500
ENDCHAR
STARTCHAR Racute
ENCODING 340
SWIDTH 599 0
DWIDTH 6 0
BBX 7 11 0 -1
BITMAP
00006A00
0008FB20
13683000
6FFFF600
0CFFFB00
0AFBFB00
09F2F900
05FFF400
03F9E100
02F6F100
00416200
ENDCHAR
STARTCHAR racute
ENCODING 341
SWIDTH 616 0
DWIDTH 6 0
BBX 7 11 0 -1
BITMAP
00004B00
0006FB30
13583000
6FFFFA00
0CFFFE00
0AFCFB00
08F3F900
07FFF500
06FBD000
05F7D000
02428000
ENDCHAR
STARTCHAR Rcommaaccent
ENCODING 342
SWIDTH 599 0
DWIDTH 6 0
BBX 6 14 0 -6
BITMAP
136520
6FFFF6
0CFFFB
0AFBFB
09F2F9
05FFF4
03F9E1
02F6F1
004162
005520
00DF70
00EF70
000A60
000A30
ENDCHAR
STARTCHAR rcommaaccent
ENCODING 343
SWIDTH 616 0
DWIDTH 6 0
BBX 6 14 0 -6
BITMAP
135520
6FFFFA
0CFFFE
0AFCFB
08F3F9
07FFF5
06FBD0
05F7D0
024280
004530
00BF90
00CF90
000780
000850
ENDCHAR
STARTCHAR Rcaron
ENCODING 344
SWIDTH 599 0
DWIDTH 6 0
BBX 6 13 0 -1
BITMAP
053042
09C2E7
02FDE1
00AD60
136520
6FFFF6
0CFFFB
0AFBFB
09F2F9
05FFF4
03F9E1
02F6F1
004162
ENDCHAR
STARTCHAR rcaron
ENCODING 345
SWIDTH 616 0
DWIDTH 6 0
BBX 6 13 0 -1
BITMAP
052052
0AC2F6
03FDD0
00AD60
135520
6FFFFA
0CFFFE
0AFCFB
08F3F9
07FFF5
06FBD0
05F7D0
024280
ENDCHAR
STARTCHAR Sacute
ENCODING 346
SWIDTH 504 0
DWIDTH 5 0
BBX 6 11 0 -1
BITMAP
0001C2
003DD6
016500
2EFF80
9FFFC0
BFEFB0
9F8860
2CFE30
386F60
2FEF10
034300
ENDCHAR
STARTCHAR sacute
ENCODING 347
SWIDTH 481 0
DWIDTH 5 0
BBX 6 11 0 -1
BITMAP
0002C1
004ED5
027400
2EFF50
9FFF80
BFEF70
9F7950
3EFA00
168F00
2FDB00
056300
ENDCHAR
STARTCHAR Scircumflex
ENCODING 348
SWIDTH 504 0
DWIDTH 5 0
BBX 5 13 0 -1
BITMAP
016500
08FF20
1E7DA0
4802B0
015300
2EFF80
9FFFC0
BFEFB0
9F8860
2CFE30
386F60
2FEF10
034300
ENDCHAR
STARTCHAR scircumflex
ENCODING 349
SWIDTH 481 0
DWIDTH 5 0
BBX 5 13 0 -1
BITMAP
026400
0AFE10
2F6E70
660390
025200
2EFF50
9FFF80
BFEF70
9F7950
3EFA00
168F00
2FDB00
056300
ENDCHAR
STARTCHAR Scedilla
ENCODING 350
SWIDTH 504 0
DWIDTH 5 0
BBX 5 12 0 -4
BITMAP
015300
2EFF80
9FFFC0
BFEFB0
9F8860
2CFE30
386F60
2FEF10
03E600
00A900
005C00
003400
ENDCHAR
STARTCHAR scedilla
ENCODING 351
SWIDTH 481 0
DWIDTH 5 0
BBX 5 12 0 -4
BITMAP
025200
2EFF50
9FFF80
BFEF70
9F7950
3EFA00
168F00
2FDB00
06F300
03B600
018800
014200
ENDCHAR
STARTCHAR Scaron
ENCODING 352
SWIDTH 503 0
DWIDTH 5 0
BBX 5 14 0 -1
BITMAP
340340
6E2CA0
0EEF20
07D900
000000
015300
2EFF80
9FFFC0
BFEFB0
9F8860
2CFE30
386F60
2FEF10
034300
ENDCHAR
STARTCHAR scaron
ENCODING 353
SWIDTH 479 0
DWIDTH 5 0
BBX 5 14 0 -1
BITMAP
330320
9D1D80
2FDF20
0AE900
000000
025200
2EFF50
9FFF80
BFEF60
9F7940
3EFA00
168F00
2FDB00
056200
ENDCHAR
STARTCHAR Tcommaaccent
ENCODING 354
SWIDTH 622 0
DWIDTH 6 0
BBX 6 13 0 -5
BITMAP
135530
5FFFFA
1FFFF6
0EFFF5
039F21
008F10
008F00
006F00
006B00
002A00
004B40
002960
001420
ENDCHAR
STARTCHAR tcommaaccent
ENCODING 355
SWIDTH 683 0
DWIDTH 7 0
BBX 7 13 0 -5
BITMAP
13666410
8FFFFF30
1FFFFD00
0DFFFC00
045F7200
003F8000
001F7000
000E7000
000D6000
000B2000
000B9000
0005C000
00044000
ENDCHAR
STARTCHAR Tcaron
ENCODING 356
SWIDTH 622 0
DWIDTH 6 0
BBX 6 13 0 -1
BITMAP
071060
0D95F3
06FEA0
01CD30
135530
5FFFFA
1FFFF6
0EFFF5
039F21
008F10
008F00
006F00
006B00
ENDCHAR
STARTCHAR tcaron
ENCODING 357
SWIDTH 622 0
DWIDTH 6 0
BBX 6 13 0 -1
BITMAP
052052
0AC2E6
03FDD0
00AD60
135530
5FFFFA
1FFFF6
0EFFF5
039F21
008F10
008F00
006F00
006B00
ENDCHAR
STARTCHAR Utilde
ENCODING 360
SWIDTH 637 0
DWIDTH 6 0
BBX 6 12 0 -1
BITMAP
020230
1FBEF2
06A580
355131
4FC5FB
1FC5F7
0ED6F4
0CB7F1
0CC8E0
0AEBC0
06DC70
002200
ENDCHAR
STARTCHAR utilde
ENCODING 361
SWIDTH 708 0
DWIDTH 7 0
BBX 7 11 0 0
BITMAP
01115000
0BDDF700
02A67200
14513100
4FF2CFB0
0EF3CF50
0CF4CE10
09F3DD00
08F4EB00
04F9F800
01CBD400
ENDCHAR
STARTCHAR Umacron
ENCODING 362
SWIDTH 637 0
DWIDTH 6 0
BBX 6 11 0 -1
BITMAP
012110
07FFD0
356241
4FC5FB
1FC5F7
0ED6F4
0CB7F1
0CC8E0
0AEBC0
06DC70
002200
ENDCHAR
STARTCHAR umacron
ENCODING 363
SWIDTH 708 0
DWIDTH 7 0
BBX 7 10 0 0
BITMAP
00211000
02FFF300
14623100
4FF2CFB0
0EF3CF50
0CF4CE10
09F3DD00
08F4EB00
04F9F800
01CBD400
ENDCHAR
STARTCHAR Ubreve
ENCODING 364
SWIDTH 637 0
DWIDTH 6 0
BBX 6 13 0 -1
BITMAP
011000
05D0C4
01DFE1
001450
355131
4FC5FB
1FC5F7
0ED6F4
0CB7F1
0CC8E0
0AEBC0
06DC70
002200
ENDCHAR
STARTCHAR ubreve
ENCODING 365
SWIDTH 708 0
DWIDTH 7 0
BBX 7 12 0 0
BITMAP
00100000
00E57900
008FF700
00026100
14513100
4FF2CFB0
0EF3CF50
0CF4CE10
09F3DD00
08F4EB00
04F9F800
01CBD400
ENDCHAR
STARTCHAR Uring
ENCODING 366
SWIDTH 637 0
DWIDTH 6 0
BBX 6 12 0 -1
BITMAP
007A30
00C490
00AC30
355231
4FC5FB
1FC5F7
0ED6F4
0CB7F1
0CC8E0
0AEBC0
06DC70
002200
ENDCHAR
STARTCHAR uring
ENCODING 367
SWIDTH 708 0
DWIDTH 7 0
BBX 7 11 0 0
BITMAP
002A7000
0085B100
004C9000
14523100
4FF2CFB0
0EF3CF50
0CF4CE10
09F3DD00
08F4EB00
04F9F800
01CBD400
ENDCHAR
STARTCHAR Uhungarumlaut
ENCODING 368
SWIDTH 637 0
DWIDTH 6 0
BBX 6 13 0 -1
BITMAP
002020
02F4DA
08B4D2
091720
355131
4FC5FB
1FC5F7
0ED6F4
0CB7F1
0CC8E0
0AEBC0
06DC70
002200
ENDCHAR
STARTCHAR uhungarumlaut
ENCODING 369
SWIDTH 708 0
DWIDTH 7 0
BBX 7 12 0 0
BITMAP
00201100
00B98D20
03E3D500
07427000
14513100
4FF2CFB0
0EF3CF50
0CF4CE10
09F3DD00
08F4EB00
04F9F800
01CBD400
ENDCHAR
STARTCHAR Uogonek
ENCODING 370
SWIDTH 637 0
DWIDTH 6 0
BBX 6 11 0 -3
BITMAP
355131
4FC5FB
1FC5F7
0ED6F4
0CB7F1
0CC8E0
0AEBC0
06DF70
002F00
001F52
0008F7
ENDCHAR
STARTCHAR uogonek
ENCODING 371
SWIDTH 662 0
DWIDTH 7 0
BBX 7 11 0 -3
BITMAP
14513100
5FF2DFA0
1FF2CF40
0CF4CE00
0AF3EC00
08F3FA00
05F9F800
01DFD300
003C0000
003E4100
000AF400
ENDCHAR
STARTCHAR Wcircumflex
ENCODING 372
SWIDTH 777 0
DWIDTH 8 0
BBX 8 12 0 0
BITMAP
00165000
008FF200
00E7CA00
03802B00
01343430
6FBA9CE4
0AEDDF70
06FFFF10
01EFFC00
00AEFA00
007BE600
0038C100
ENDCHAR
STARTCHAR wcircumflex
ENCODING 373
SWIDTH 704 0
DWIDTH 7 0
BBX 7 12 0 0
BITMAP
00363000
00CFD000
03E6E600
07405800
02141200
6F8E5F90
0BBFCF20
07FFFB00
01FFF800
00DEF600
009BF500
0047D200
ENDCHAR
STARTCHAR Ycircumflex
ENCODING 374
SWIDTH 688 0
DWIDTH 7 0
BBX 7 13 0 -1
BITMAP
00363000
00DFC000
05E6F500
08305700
24504100
2BF4DF70
01CEF800
006FF100
001EE000
000AD000
0008C000
0007B000
00022000
ENDCHAR
STARTCHAR ycircumflex
ENCODING 375
SWIDTH 604 0
DWIDTH 6 0
BBX 6 13 0 -1
BITMAP
006600
05FF40
0C9BC0
2A01B1
252220
2CC8F6
03FE90
00DF30
009F20
006F00
005F00
006D00
003400
ENDCHAR
STARTCHAR Ydieresis
ENCODING 376
SWIDTH 688 0
DWIDTH 7 0
BBX 7 12 0 -1
BITMAP
04415600
0DF2FF00
0CF2ED00
24504100
2BF4DF70
01CEF800
006FF100
001EE000
000AD000
0008C000
0007B000
00022000
ENDCHAR
STARTCHAR Zacute
ENCODING 377
SWIDTH 695 0
DWIDTH 7 0
BBX 7 11 0 -1
BITMAP
00000960
0001BE90
14668200
7FFFFF80
1EFFFF10
0BEFF900
043FA000
008D1000
00DA3000
04EF9000
00121000
ENDCHAR
STARTCHAR zacute
ENCODING 378
SWIDTH 622 0
DWIDTH 6 0
BBX 7 11 0 -1
BITMAP
00004B00
0006FC30
15696100
7FFFFA00
1EFFF400
0BFFE100
044F5000
008B0000
00C82000
02FF8000
00233000
ENDCHAR
STARTCHAR Zdotaccent
ENCODING 379
SWIDTH 695 0
DWIDTH 7 0
BBX 7 13 0 -1
BITMAP
00244000
00AFD000
008FE000
00698000
14665200
7FFFFF80
1EFFFF10
0BEFF900
043FA000
008D1000
00DA3000
04EF9000
00121000
ENDCHAR
STARTCHAR zdotaccent
ENCODING 380
SWIDTH 622 0
DWIDTH 6 0
BBX 6 13 0 -1
BITMAP
014510
03FF50
02FF60
01A830
156651
7FFFFA
1EFFF4
0BFFE1
044F50
008B00
00C820
02FF80
002330
ENDCHAR
STARTCHAR Zcaron
ENCODING 381
SWIDTH 693 0
DWIDTH 7 0
BBX 7 14 0 -1
BITMAP
02503300
04E2C900
00DDF200
007D9000
00000000
14665200
7FFFFF80
1FFFFE10
0CEFF800
043FA000
008D1000
00DA3000
04EF9000
00121000
ENDCHAR
STARTCHAR zcaron
ENCODING 382
SWIDTH 621 0
DWIDTH 6 0
BBX 6 14 0 -1
BITMAP
071070
0C95F2
05FEA0
00CD20
000000
156641
7FFFFA
1EFFF4
0BFFE1
044F50
008B00
00C820
02FF80
002330
ENDCHAR
STARTCHAR DZ
ENCODING 497
SWIDTH 194 0
DWIDTH 2 0
BBX 1 1 0 0
BITMAP
00
ENDCHAR
STARTCHAR Dz
ENCODING 498
SWIDTH 194 0
DWIDTH 2 0
BBX 1 1 0 0
BITMAP
00
ENDCHAR
STARTCHAR dotlessj
ENCODING 567
SWIDTH 458 0
DWIDTH 5 0
BBX 6 9 -1 -1
BITMAP
004520
007FF1
003FB0
002FA0
002FA0
153F80
1F7F60
0AFF30
001300
ENDCHAR
STARTCHAR circumflex
ENCODING 710
SWIDTH 528 0
DWIDTH 5 0
BBX 5 4 0 7
BITMAP
026400
0AFE10
2F6E70
650390
ENDCHAR
STARTCHAR caron
ENCODING 711
SWIDTH 486 0
DWIDTH 5 0
BBX 5 4 0 7
BITMAP
430420
8D2E70
2FDE10
09D700
ENDCHAR
STARTCHAR breve
ENCODING 728
SWIDTH 464 0
DWIDTH 5 0
BBX 5 4 0 -1
BITMAP
110000
7B1D20
3EFD00
014400
ENDCHAR
STARTCHAR dotaccent
ENCODING 729
SWIDTH 388 0
DWIDTH 4 0
BBX 4 4 0 2
BITMAP
1451
5FF3
4FF4
2A82
ENDCHAR
STARTCHAR ring
ENCODING 730
SWIDTH 370 0
DWIDTH 4 0
BBX 4 3 0 3
BITMAP
2A80
76A2
3CA0
ENDCHAR
STARTCHAR ogonek
ENCODING 731
SWIDTH 360 0
DWIDTH 4 0
BBX 4 4 0 0
BITMAP
1500
6900
6C30
1CF2
ENDCHAR
STARTCHAR tilde
ENCODING 732
SWIDTH 535 0
DWIDTH 5 0
BBX 5 3 0 -1
BITMAP
020410
7EBFB0
198650
ENDCHAR
STARTCHAR hungarumlaut
ENCODING 733
SWIDTH 554 0
DWIDTH 6 0
BBX 6 4 0 7
BITMAP
020110
0BA8D2
2E3D60
642700
ENDCHAR
STARTCHAR dotaccentcmb
ENCODING 775
SWIDTH 396 0
DWIDTH 4 0
BBX 4 4 0 3
BITMAP
4CD3
4FF4
3FF4
0210
ENDCHAR
STARTCHAR uni030F
ENCODING 783
SWIDTH 549 0
DWIDTH 6 0
BBX 5 4 0 7
BITMAP
020200
8E3F40
1C69A0
018090
ENDCHAR
STARTCHAR uni0311
ENCODING 785
SWIDTH 490 0
DWIDTH 5 0
BBX 5 4 0 3
BITMAP
013100
1EFC00
5D3F40
230210
ENDCHAR
STARTCHAR uni0326
ENCODING 806
SWIDTH 360 0
DWIDTH 4 0
BBX 4 5 0 -1
BITMAP
1650
5FF1
5FF1
01E0
02B0
ENDCHAR
STARTCHAR endash
ENCODING 8211
SWIDTH 478 0
DWIDTH 5 0
BBX 5 3 0 2
BITMAP
5CCB20
6FFF00
011100
ENDCHAR
STARTCHAR emdash
ENCODING 8212
SWIDTH 567 0
DWIDTH 6 0
BBX 6 3 0 2
BITMAP
5CBCB1
6FEFD0
010110
ENDCHAR
STARTCHAR quoteleft
ENCODING 8216
SWIDTH 373 0
DWIDTH 4 0
BBX 4 6 0 2
BITMAP
1400
4C00
6C61
6FF3
6FF2
2781
ENDCHAR
STARTCHAR quoteright
ENCODING 8217
SWIDTH 369 0
DWIDTH 4 0
BBX 4 6 0 2
BITMAP
2440
7FF1
8FF1
59F1
01E0
0160
ENDCHAR
STARTCHAR quotesinglbase
ENCODING 8218
SWIDTH 369 0
DWIDTH 4 0
BBX 4 6 0 2
BITMAP
2440
7FF1
8FF1
59F1
01E0
0160
ENDCHAR
STARTCHAR quotedblleft
ENCODING 8220
SWIDTH 687 0
DWIDTH 7 0
BBX 7 6 0 2
BITMAP
14005000
3C01E000
5C65D620
6FF7FF50
6FF6FF40
26826820
ENDCHAR
STARTCHAR quotedblright
ENCODING 8221
SWIDTH 677 0
DWIDTH 7 0
BBX 7 6 0 2
BITMAP
25414400
7FE4FF20
8FE5FF20
5AD39F20
02C00E00
02501700
ENDCHAR
STARTCHAR quotedblbase
ENCODING 8222
SWIDTH 697 0
DWIDTH 7 0
BBX 7 5 0 -3
BITMAP
5CB2CB50
7FF3FF70
8FF3FF70
12F01A60
02D00C30
ENDCHAR
STARTCHAR ellipsis
ENCODING 8230
SWIDTH 1462 0
DWIDTH 15 0
BBX 15 4 0 0
BITMAP
3670005730027710
5FF000CF7005FF10
4FF100BF8003FF10
2760005630027600
ENDCHAR
STARTCHAR guilsinglleft
ENCODING 8249
SWIDTH 459 0
DWIDTH 5 0
BBX 5 7 0 0
BITMAP
012100
08FD10
2EF300
9FA000
2EE100
04FC10
002410
ENDCHAR
STARTCHAR guilsinglright
ENCODING 8250
SWIDTH 432 0
DWIDTH 4 0
BBX 4 7 0 0
BITMAP
1220
5FD0
0AF7
02FE
08F7
7FB0
1210
ENDCHAR
STARTCHAR fraction
ENCODING 8260
SWIDTH 371 0
DWIDTH 4 0
BBX 4 9 0 -1
BITMAP
4652
7FF5
0EF1
0FD0
0EC0
0CC0
0A90
0990
0020
ENDCHAR
STARTCHAR Euro
ENCODING 8364
SWIDTH 587 0
DWIDTH 6 0
BBX 6 10 0 -2
BITMAP
004620
07FFE2
0EFFF6
0DFEF6
5DF6E5
6CE200
39F7D0
03FFA0
004710
002300
ENDCHAR
STARTCHAR trademark
ENCODING 8482
SWIDTH 785 0
DWIDTH 8 0
BBX 8 6 0 2
BITMAP
46637473
9FF3EDF3
5DC1CFF2
0860ADD1
075078B0
04201000
ENDCHAR
STARTCHAR minus
ENCODING 8722
SWIDTH 478 0
DWIDTH 5 0
BBX 5 3 0 2
BITMAP
5CCB20
6FFF00
011100
ENDCHAR
STARTCHAR commaaccent
ENCODING 63171
SWIDTH 360 0
DWIDTH 4 0
BBX 4 6 0 -2
BITMAP
2650
7FF1
8FF1
48F1
01E0
0150
ENDCHAR
STARTCHAR .notdef
ENCODING -1
SWIDTH 365 0
DWIDTH 4 0
BBX 3 7 0 0
BITMAP
5570
5050
5050
5050
5050
5050
7580
ENDCHAR
STARTCHAR .null
ENCODING -1
SWIDTH 0 0
DWIDTH 0 0
BBX 1 1 0 0
BITMAP
00
ENDCHAR
STARTCHAR nonmarkingreturn
ENCODING -1
SWIDTH 333 0
DWIDTH 3 0
BBX 1 1 0 0
BITMAP
00
ENDCHAR
ENDFONT
